<?xml version="1.0" encoding="UTF-8"?>
<svg version="1.1" xmlns="http://www.w3.org/2000/svg" xmlns:xlink="http://www.w3.org/1999/xlink" viewBox="0 0 18.5282 18.1663"> <g> <rect height="18.1663" opacity="0" width="18.5282" x="0" y="0"/> <path d="M18.1591 9.07875C18.1591 14.0903 14.0918 18.1575 9.07875 18.1575C4.06722 18.1575 0 14.0903 0 9.07875C0 4.06722 4.06722 0 9.07875 0C14.0918 0 18.1591 4.06722 18.1591 9.07875ZM1.78839 9.07875C1.78839 13.1099 5.04755 16.3691 9.07875 16.3691C13.1099 16.3691 16.3707 13.1099 16.3707 9.07875C16.3707 5.04755 13.1099 1.78839 9.07875 1.78839C5.04755 1.78839 1.78839 5.04755 1.78839 9.07875Z" fill="#ff3b30"/> <path d="M6.63433 8.13814L6.63433 9.16629C6.63433 10.5571 7.65931 11.5552 9.07154 11.5552C9.37395 11.5552 9.65873 11.5096 9.91809 11.4219L10.6705 12.1744C10.3416 12.3291 9.97596 12.4324 9.58341 12.4798L9.58341 13.2915L11.2732 13.2915C11.5518 13.2915 11.7833 13.5302 11.7833 13.8073C11.7833 14.0755 11.5446 14.3198 11.2732 14.3198L6.87708 14.3198C6.60005 14.3198 6.35976 14.0827 6.35976 13.8073C6.35976 13.5302 6.60005 13.2915 6.87708 13.2915L8.57408 13.2915L8.57408 12.4798C6.82664 12.2769 5.61568 10.9615 5.61568 9.16945L5.61568 8.07363C5.61568 7.8168 5.82542 7.60186 6.07839 7.5822ZM9.18971 10.6935C9.15222 10.6977 9.11369 10.6991 9.0747 10.6991C8.21654 10.6991 7.57617 10.0359 7.57617 9.12041L7.57617 9.07997ZM12.5346 8.07363L12.5346 9.16945C12.5346 9.72845 12.4168 10.2404 12.2017 10.6865L11.4128 9.89835C11.4803 9.67063 11.516 9.42527 11.516 9.16629L11.516 8.07363C11.516 7.80381 11.749 7.58021 12.0261 7.58021C12.2975 7.58021 12.5346 7.80381 12.5346 8.07363ZM10.5685 5.46538L10.5685 9.05478L7.57617 6.06524L7.57617 5.4638C7.57617 4.55712 8.21654 3.89953 9.0747 3.89953C9.93128 3.89953 10.5685 4.55871 10.5685 5.46538Z" fill="#ff3b30"/> <path d="M12.6585 13.262C12.8238 13.4256 13.1112 13.4344 13.2764 13.262C13.4504 13.0896 13.4504 12.8166 13.2764 12.6425L5.53095 4.88987C5.34972 4.71585 5.07515 4.71585 4.90271 4.88987C4.72868 5.06231 4.72868 5.34251 4.90271 5.50774Z" fill="#ff3b30"/> </g> </svg>