<?xml version="1.0" encoding="UTF-8"?>
<svg version="1.1" xmlns="http://www.w3.org/2000/svg" xmlns:xlink="http://www.w3.org/1999/xlink" viewBox="0 0 18.0018 17.6388"><g><rect height="17.6388" opacity="0" width="18.0018" x="0" y="0"/><path d="M8.81499 17.63C13.676 17.63 17.6327 13.67 17.6327 8.81499C17.6327 3.95394 13.676 0 8.81499 0C3.96273 0 0 3.95394 0 8.81499C0 13.67 3.96273 17.63 8.81499 17.63Z" fill="#ff9500"/><path d="M6.59399 14.2527C6.37937 14.2527 6.19172 14.0711 6.19172 13.8565C6.19172 13.6391 6.37937 13.4542 6.59399 13.4542L8.4215 13.4542L8.4215 12.2977C6.64154 12.1309 5.42865 10.7953 5.42865 9.01222L5.42865 7.94408C5.42865 7.73279 5.60751 7.55393 5.81608 7.55393C6.03343 7.55393 6.21229 7.73279 6.21229 7.94408L6.21229 9.01222C6.21229 10.5303 7.24729 11.5625 8.81499 11.5625C10.3854 11.5625 11.4292 10.5303 11.4292 9.01222L11.4292 7.94408C11.4292 7.73279 11.602 7.55393 11.8194 7.55393C12.0279 7.55393 12.2128 7.73279 12.2128 7.94408L12.2128 9.01222C12.2128 10.7953 10.9972 12.1249 9.22333 12.2977L9.22333 13.4542L11.0448 13.4542C11.2594 13.4542 11.4383 13.6391 11.4383 13.8565C11.4383 14.065 11.2533 14.2527 11.0448 14.2527ZM8.81499 10.5477C7.92457 10.5477 7.32568 9.85333 7.32568 8.93593L7.32568 5.04571C7.32568 4.13165 7.92457 3.44944 8.81499 3.44944C9.70814 3.44944 10.307 4.13165 10.307 5.04571L10.307 8.93593C10.307 9.85333 9.70814 10.5477 8.81499 10.5477Z" fill="white"/></g></svg>