<?xml version="1.0" encoding="UTF-8"?>
<svg version="1.1" xmlns="http://www.w3.org/2000/svg" xmlns:xlink="http://www.w3.org/1999/xlink" viewBox="0 0 16.2074 19.9455"><g><rect height="19.9455" opacity="0" width="16.2074" x="0" y="0"/><path d="M2.90081 7.53583L2.90081 9.22368C2.90081 12.1799 4.87106 14.1907 7.92051 14.1907C8.96061 14.1907 9.87596 13.9564 10.6265 13.5253L11.3515 14.2492C10.5335 14.7601 9.54649 15.0717 8.4359 15.1448L8.4359 17.5414L11.8465 17.5414C12.1339 17.5414 12.3585 17.7721 12.3585 18.0595C12.3585 18.3442 12.1339 18.5716 11.8465 18.5716L3.9918 18.5716C3.70712 18.5716 3.47975 18.3442 3.47975 18.0595C3.47975 17.7721 3.70712 17.5414 3.9918 17.5414L7.40846 17.5414L7.40846 15.1448C4.08101 14.9262 1.87337 12.5746 1.87337 9.26007L1.87337 7.53583C1.87337 7.25115 2.09802 7.02378 2.3827 7.02378C2.6701 7.02378 2.90081 7.25115 2.90081 7.53583ZM5.92856 8.83472L5.92856 8.91369C5.92856 10.2444 6.70832 11.1693 7.92051 11.1693C8.03158 11.1693 8.13903 11.1615 8.24123 11.1438L9.06664 11.9679C8.7226 12.1063 8.33743 12.1792 7.92051 12.1792C6.11532 12.1792 4.90111 10.8071 4.90111 8.91369L4.90111 7.80889ZM13.9737 7.53583L13.9737 9.26007C13.9737 10.3428 13.7372 11.3228 13.2992 12.1564L12.5261 11.3843C12.7999 10.7488 12.9435 10.0206 12.9435 9.22368L12.9435 7.53583C12.9435 7.25115 13.1709 7.02378 13.4556 7.02378C13.7403 7.02378 13.9737 7.25115 13.9737 7.53583ZM10.9399 3.26549L10.9399 8.91369C10.9399 9.19519 10.9131 9.46516 10.8585 9.71902L9.90974 8.77146L9.90974 3.26549C9.90974 1.93474 9.12997 1.00987 7.92051 1.00987C6.70832 1.00987 5.92856 1.93474 5.92856 3.26549L5.92856 4.79554L4.90111 3.76945L4.90111 3.26549C4.90111 1.366 6.11532 0 7.92051 0C9.72904 0 10.9399 1.366 10.9399 3.26549Z" fill="black" fill-opacity="0.85"/><path d="M14.3696 15.9877C14.5733 16.1914 14.9059 16.1914 15.1123 15.9877C15.3155 15.7724 15.3161 15.4486 15.1123 15.2449L1.80991 1.94853C1.60891 1.75359 1.26754 1.74208 1.05836 1.94853C0.860692 2.15499 0.860692 2.49363 1.05836 2.69402Z" fill="black" fill-opacity="0.85"/></g></svg>