<?xml version="1.0" encoding="UTF-8"?>
<svg version="1.1" xmlns="http://www.w3.org/2000/svg" xmlns:xlink="http://www.w3.org/1999/xlink" viewBox="0 0 18.0018 17.6388"><g><rect height="17.6388" opacity="0" width="18.0018" x="0" y="0"/><path d="M17.6327 8.81499C17.6327 13.6815 13.6842 17.63 8.81499 17.63C3.94849 17.63 0 13.6815 0 8.81499C0 3.94576 3.94849 0 8.81499 0C13.6842 0 17.6327 3.94576 17.6327 8.81499ZM1.13994 8.81499C1.13994 13.0576 4.57242 16.49 8.81499 16.49C13.0603 16.49 16.4928 13.0576 16.4928 8.81499C16.4928 4.5697 13.0603 1.13722 8.81499 1.13722C4.57242 1.13722 1.13994 4.5697 1.13994 8.81499Z" fill="black" fill-opacity="0.85"/><path d="M6.25808 7.96562L6.25808 9.01222C6.25808 10.4999 7.26882 11.5107 8.80893 11.5107C9.2542 11.5107 9.65588 11.4265 10.0002 11.2686L10.5491 11.8177C10.1575 12.0386 9.70374 12.1798 9.20514 12.2276L9.20514 13.3687L10.9902 13.3687C11.2015 13.3687 11.3743 13.5475 11.3743 13.7561C11.3743 13.9613 11.1954 14.1463 10.9902 14.1463L6.63372 14.1463C6.42516 14.1463 6.2463 13.9674 6.2463 13.7561C6.2463 13.5475 6.42516 13.3687 6.63372 13.3687L8.42757 13.3687L8.42757 12.2276C6.68127 12.0669 5.49264 10.7555 5.49264 9.01222L5.49264 7.96562C5.49264 7.76039 5.66543 7.5876 5.87066 7.5876C6.07922 7.5876 6.25808 7.76039 6.25808 7.96562ZM12.1395 7.96562L12.1395 9.01222C12.1395 9.56551 12.0192 10.0747 11.7985 10.5168L11.2192 9.9373C11.3195 9.65833 11.3713 9.34738 11.3713 9.01222L11.3713 7.96562C11.3713 7.76039 11.5441 7.5876 11.7554 7.5876C11.9579 7.5876 12.1395 7.76039 12.1395 7.96562ZM9.19626 10.4644C9.07555 10.4975 8.94573 10.514 8.80893 10.514C7.9367 10.514 7.34722 9.83786 7.34722 8.93593L7.34722 8.61472ZM10.2734 5.1191L10.2734 8.93593C10.2734 8.95393 10.2731 8.97184 10.2712 8.98906L7.34722 6.06436L7.34722 5.1191C7.34722 4.22596 7.9367 3.55316 8.80893 3.55316C9.68388 3.55316 10.2734 4.22596 10.2734 5.1191Z" fill="black" fill-opacity="0.85"/><path d="M12.7647 13.2333C12.8923 13.361 13.1151 13.3697 13.2455 13.2333C13.3792 13.0942 13.3792 12.8863 13.2455 12.7499L4.89226 4.38785C4.75251 4.25145 4.53911 4.25145 4.40543 4.38785C4.2663 4.52698 4.26903 4.741 4.40543 4.86862Z" fill="black" fill-opacity="0.85"/></g></svg>