<?xml version="1.0" encoding="UTF-8"?> 
<svg version="1.1" xmlns="http://www.w3.org/2000/svg" xmlns:xlink="http://www.w3.org/1999/xlink" viewBox="0 0 18.0018 17.6388"> <g> <rect height="17.6388" opacity="0" width="18.0018" x="0" y="0"/> <path d="M17.6327 8.81499C17.6327 13.67 13.676 17.63 8.81499 17.63C3.96273 17.63 0 13.67 0 8.81499C0 3.95394 3.96273 0 8.81499 0C13.676 0 17.6327 3.95394 17.6327 8.81499ZM5.42865 7.94408L5.42865 9.01222C5.42865 10.7953 6.64154 12.1309 8.4215 12.2977L8.4215 13.4542L6.59399 13.4542C6.37937 13.4542 6.19172 13.6391 6.19172 13.8565C6.19172 14.0711 6.37937 14.2527 6.59399 14.2527L11.0448 14.2527C11.2533 14.2527 11.4383 14.065 11.4383 13.8565C11.4383 13.6391 11.2594 13.4542 11.0448 13.4542L9.22333 13.4542L9.22333 12.2977C9.72821 12.2485 10.1879 12.1056 10.585 11.8824L10.021 11.3187C9.67162 11.4778 9.26492 11.5625 8.81499 11.5625C7.24729 11.5625 6.21229 10.5303 6.21229 9.01222L6.21229 7.94408C6.21229 7.73279 6.03343 7.55393 5.81608 7.55393C5.60751 7.55393 5.42865 7.73279 5.42865 7.94408ZM4.30506 4.29355C4.16593 4.43874 4.17744 4.65882 4.30506 4.78916L12.8381 13.3249C12.9684 13.4553 13.1973 13.4641 13.331 13.3249C13.4674 13.1797 13.4674 12.9657 13.331 12.832L4.80402 4.29355C4.67033 4.15986 4.44753 4.15986 4.30506 4.29355ZM11.4292 7.94408L11.4292 9.01222C11.4292 9.35416 11.3763 9.67145 11.2736 9.95616L11.8663 10.5487C12.0906 10.0975 12.2128 9.57765 12.2128 9.01222L12.2128 7.94408C12.2128 7.73279 12.0279 7.55393 11.8194 7.55393C11.602 7.55393 11.4292 7.73279 11.4292 7.94408ZM7.32568 8.93593C7.32568 9.85333 7.92457 10.5477 8.81499 10.5477C8.95122 10.5477 9.08061 10.5315 9.20108 10.4991L7.32568 8.62442ZM7.32568 5.04571L7.32568 6.00849L10.3049 8.9875C10.3068 8.97078 10.307 8.9534 10.307 8.93593L10.307 5.04571C10.307 4.13165 9.70814 3.44944 8.81499 3.44944C7.92457 3.44944 7.32568 4.13165 7.32568 5.04571Z" fill="#ff3b30"/> </g> </svg>