<?xml version="1.0" encoding="UTF-8"?>
<svg version="1.1" xmlns="http://www.w3.org/2000/svg" xmlns:xlink="http://www.w3.org/1999/xlink" viewBox="0 0 19.7402 19.3096"> <g> <rect height="19.3096" opacity="0" width="19.7402" x="0" y="0"/> <path d="M5.40527 19.3096C5.83594 19.3096 6.13477 19.0811 6.6709 18.6064L9.70312 15.9082L15.3457 15.9082C17.9648 15.9082 19.3711 14.458 19.3711 11.8828L19.3711 5.15039C19.3711 2.5752 17.9648 1.125 15.3457 1.125L4.02539 1.125C1.40625 1.125 0 2.56641 0 5.15039L0 11.8828C0 14.4668 1.40625 15.9082 4.02539 15.9082L4.44727 15.9082L4.44727 18.1934C4.44727 18.8701 4.79004 19.3096 5.40527 19.3096ZM5.76562 17.7012L5.76562 15.1523C5.76562 14.6777 5.58105 14.4932 5.10645 14.4932L4.02539 14.4932C2.25 14.4932 1.41504 13.5879 1.41504 11.874L1.41504 5.15039C1.41504 3.43652 2.25 2.54004 4.02539 2.54004L15.3457 2.54004C17.1123 2.54004 17.9561 3.43652 17.9561 5.15039L17.9561 11.874C17.9561 13.5879 17.1123 14.4932 15.3457 14.4932L9.65039 14.4932C9.1582 14.4932 8.91211 14.5635 8.57812 14.9062Z" fill="black"/> <path d="M5.97656 12.8672L13.3945 12.8672C13.7197 12.8672 13.8779 12.6475 13.8779 12.3486C13.8779 11.4609 12.5332 9.1582 9.68555 9.1582C6.83789 9.1582 5.50195 11.4609 5.50195 12.3486C5.50195 12.6475 5.66016 12.8672 5.97656 12.8672ZM9.68555 8.49902C10.8457 8.50781 11.7686 7.52344 11.7686 6.22266C11.7686 5.00098 10.8457 3.99023 9.68555 3.99023C8.53418 3.99023 7.60254 5.00098 7.60254 6.22266C7.60254 7.52344 8.53418 8.49023 9.68555 8.49902Z" fill="black"/> </g> </svg>